<?xml version="1.0" encoding="iso-8859-1"?>
<!-- Generator: Adobe Illustrator 16.0.0, SVG Export Plug-In . SVG Version: 6.00 Build 0)  -->
<!DOCTYPE svg PUBLIC "-//W3C//DTD SVG 1.1//EN" "http://www.w3.org/Graphics/SVG/1.1/DTD/svg11.dtd">
<svg version="1.1" id="Capa_1" xmlns="http://www.w3.org/2000/svg" xmlns:xlink="http://www.w3.org/1999/xlink" x="0px" y="0px"
	 width="706.386px" height="706.386px" viewBox="0 0 706.386 706.386" style="enable-background:new 0 0 706.386 706.386;"
	 xml:space="preserve">
<g>
	<g>
		<path d="M668.965,231.567l-0.025-0.053c0.03,0.007,0.062,0.015,0.096,0.019C669.013,231.547,668.985,231.553,668.965,231.567z"/>
		<path d="M659.642,216.137c-0.003-0.001-0.005-0.001-0.006-0.001c0.001-0.016,0.006-0.032,0.006-0.047V216.137z"/>
	</g>
	<path d="M114.621,437.845l303.896-76.947l100.001-0.424l87.949-21.575l75.827-18.178c18.313-5.56,24.878-18.386,24.017-31.234
		c-1.179-17.768-13.459-26.867-30.939-28.103c-3.289-15.168-17.682-21.323-31.428-16.964l-72.164,24.347
		c-28.024,9.487-67.467,12.195-67.467,12.195l-62.038-1.257c-2.802-13.523-25.567-30.056-34.646-26.027l-128.312,19.104
		c0,0-57.398-5.523-59.697-5.839c0,0-72.034,3.483-95.434,12.411c-19.979,7.605-26.688,15.556-32.82,29.202
		c-3.879,8.661-3.262,7.195-10.859,12.267c-6.464,4.302-70.656,38.258-70.656,38.258c-10.715,6.701-9.926,18.867-9.781,40.994
		c0.574,90.221,0.574,90.221,0.574,90.221L114.621,437.845z"/>
</g>
<g>
</g>
<g>
</g>
<g>
</g>
<g>
</g>
<g>
</g>
<g>
</g>
<g>
</g>
<g>
</g>
<g>
</g>
<g>
</g>
<g>
</g>
<g>
</g>
<g>
</g>
<g>
</g>
<g>
</g>
</svg>
